<svg width="12" height="14" viewBox="0 0 12 14" fill="none" xmlns="http://www.w3.org/2000/svg">
<path d="M10.0489 3.52232H9.60444C9.48174 3.52232 9.38222 3.67226 9.38222 3.85714C9.38222 4.04202 9.48174 4.19196 9.60444 4.19196H10.0489C10.4485 4.19196 10.8317 4.43115 11.1142 4.85689C11.3968 5.28254 11.5556 5.85999 11.5556 6.46205V9.23437C11.5591 9.83986 11.4019 10.4225 11.119 10.8526C10.836 11.2826 10.4508 11.5245 10.0489 11.5245C9.9834 11.5244 9.92139 11.5687 9.88 11.6451C9.83625 11.7202 9.81819 11.8216 9.83111 11.9196L9.91556 12.6696L8.81333 11.5848C8.77854 11.5461 8.73653 11.5251 8.69333 11.5245H5.24889C4.41854 11.5245 3.74466 10.5122 3.74222 9.26116V8.64508H6.75111C7.82764 8.64142 8.69973 7.32736 8.70222 5.70535V2.93303C8.69979 1.31207 7.82695 0 6.75111 0H1.95111C0.875271 0 0.00248889 1.31207 0 2.93303V5.70535C0.00194453 7.17511 0.722507 8.41794 1.68889 8.6183L1.55556 9.76339C1.54 9.89459 1.57861 10.0268 1.65333 10.0982C1.72646 10.1689 1.82021 10.1689 1.89333 10.0982L3.29333 8.72544V9.23437C3.28979 10.0187 3.49438 10.7726 3.8616 11.3285C4.22889 11.8843 4.72834 12.196 5.24889 12.1942H8.62667L10.1022 13.6473C10.1753 13.718 10.2691 13.718 10.3422 13.6473C10.4179 13.5772 10.4569 13.4439 10.44 13.3125L10.3111 12.1741C11.2775 11.9737 11.9981 10.7309 12 9.26116V6.46205C11.9976 4.84004 11.1254 3.52607 10.0489 3.52232ZM2.08444 9.11383L2.16889 8.37053C2.1825 8.27249 2.16438 8.17058 2.12 8.09598C2.07861 8.0196 2.0166 7.97534 1.95111 7.97544C1.11902 7.97544 0.444444 6.95906 0.444444 5.70535V2.93303C0.446875 1.68195 1.12076 0.669643 1.95111 0.669643H6.75111C7.58146 0.669643 8.25534 1.68195 8.25778 2.93303V5.70535C8.25778 6.95906 7.5832 7.97544 6.75111 7.97544H3.30667C3.2641 7.97565 3.22243 7.99417 3.18667 8.02901L2.08444 9.11383Z" fill="black"/>
</svg>
