<svg width="25" height="13" viewBox="0 0 25 13" fill="none" xmlns="http://www.w3.org/2000/svg">
<path d="M0.605317 12.0527H0.465678C0.186401 12.0258 0 11.891 0 11.7022C0 4.50361 9.91612 3.34429 12.4301 3.15556V0.351531C12.4301 0.216688 12.5697 0.108926 12.7561 0.0280581C12.9422 -0.0259168 13.2218 0.00116471 13.4079 0.0820326L24.7672 5.44726C24.9068 5.50123 25 5.60899 25 5.71694C25 5.82471 24.9068 5.93266 24.7672 5.98663L13.4544 11.0548C13.2683 11.1357 13.0355 11.1626 12.8027 11.0817C12.6166 11.0277 12.4766 10.8929 12.4766 10.7582L12.4769 8.03522C10.2889 8.19695 3.16603 8.97895 1.11763 11.8368C1.02443 11.9714 0.838357 12.0525 0.605517 12.0525L0.605317 12.0527ZM13.594 1.07963V3.45224C13.594 3.64106 13.3612 3.80279 13.0355 3.80279C12.5698 3.80279 2.60726 4.12627 1.35029 10.3273C5.07474 7.71213 12.7096 7.30776 13.082 7.30776C13.2681 7.30776 13.4081 7.33465 13.5477 7.38863C13.6874 7.4426 13.7338 7.55036 13.7338 7.63123V10.0576L23.4171 5.71691L13.594 1.07963Z" fill="black"/>
</svg>
