<svg width="20" height="21" viewBox="0 0 20 21" fill="none" xmlns="http://www.w3.org/2000/svg">
<path d="M6.18087 11.8602C6.18087 12.487 5.67062 12.9951 5.0411 12.9951C4.41157 12.9951 3.90112 12.487 3.90112 11.8602C3.90112 11.2332 4.41157 10.7251 5.0411 10.7251C5.67062 10.7251 6.18087 11.2332 6.18087 11.8602Z" fill="black"/>
<path d="M9.99988 12.9947C10.6294 12.9947 11.1397 12.4867 11.1397 11.8598C11.1397 11.2328 10.6294 10.7247 9.99988 10.7247C9.37035 10.7247 8.86011 11.2328 8.86011 11.8598C8.86011 12.4867 9.37035 12.9947 9.99988 12.9947Z" fill="black"/>
<path d="M16.0981 11.8602C16.0981 12.487 15.5877 12.9951 14.9581 12.9951C14.3286 12.9951 13.8184 12.487 13.8184 11.8602C13.8184 11.2332 14.3286 10.7251 14.9581 10.7251C15.5877 10.7251 16.0981 11.2332 16.0981 11.8602Z" fill="black"/>
<path d="M5.0411 16.9992C5.67062 16.9992 6.18087 16.4911 6.18087 15.8643C6.18087 15.2374 5.67062 14.7294 5.0411 14.7294C4.41157 14.7294 3.90112 15.2374 3.90112 15.8643C3.90112 16.4911 4.41157 16.9992 5.0411 16.9992Z" fill="black"/>
<path d="M11.1401 15.8643C11.1401 16.4911 10.6299 16.9992 10.0004 16.9992C9.37084 16.9992 8.8606 16.4911 8.8606 15.8643C8.8606 15.2374 9.37084 14.7294 10.0004 14.7294C10.6299 14.7294 11.1401 15.2374 11.1401 15.8643Z" fill="black"/>
<path d="M14.9581 16.9992C15.5877 16.9992 16.0981 16.4911 16.0981 15.8643C16.0981 15.2374 15.5877 14.7294 14.9581 14.7294C14.3286 14.7294 13.8184 15.2374 13.8184 15.8643C13.8184 16.4911 14.3286 16.9992 14.9581 16.9992Z" fill="black"/>
<path fill-rule="evenodd" clip-rule="evenodd" d="M13.3769 2.45388H6.62368V0.737853C6.62368 0.330316 6.29193 0 5.88267 0C5.47358 0 5.1418 0.330341 5.1418 0.737853V2.45388H3.02082C1.35248 2.45388 0 3.80038 0 5.46159V17.3594C0 19.0206 1.35248 20.3671 3.02082 20.3671H16.9792C18.6475 20.3671 20 19.0206 20 17.3594V5.46159C20 3.80038 18.6475 2.45388 16.9792 2.45388H14.8588V0.737853C14.8588 0.330316 14.5273 0 14.1179 0C13.7086 0 13.3771 0.330341 13.3771 0.737853L13.3769 2.45388ZM5.88277 6.20086C5.47368 6.20086 5.1419 5.87052 5.1419 5.46316V3.92924H3.02092C2.17095 3.92924 1.48199 4.61525 1.48199 5.46159V7.5654H18.518V5.46159C18.518 4.61525 17.829 3.92924 16.9791 3.92924H14.8587V5.46316C14.8587 5.8705 14.5272 6.20086 14.1178 6.20086C13.7085 6.20086 13.377 5.87052 13.377 5.46316V3.92924H6.62373V5.46316C6.62373 5.8705 6.29198 6.20086 5.88271 6.20086H5.88277ZM1.48204 9.04095V17.3594C1.48204 18.2057 2.171 18.8916 3.02097 18.8916H16.9793C17.8293 18.8916 18.5183 18.2057 18.5183 17.3594V9.04095H1.48204Z" fill="black"/>
</svg>
