<svg width="24" height="21" viewBox="0 0 24 21" fill="none" xmlns="http://www.w3.org/2000/svg">
<g opacity="0.6">
<path d="M0.846666 16.7298H3.57294V19.5181C3.57294 19.8485 3.75879 20.1377 4.04798 20.2823C4.17194 20.3442 4.2959 20.365 4.41968 20.365C4.60553 20.365 4.79138 20.3031 4.936 20.1998L9.47989 16.7505H23.1529C23.6279 16.7505 23.9996 16.3788 23.9996 15.9038L24 0.846747C24 0.371708 23.6283 0 23.1533 0H0.846747C0.371708 0 6.59769e-08 0.371704 6.59769e-08 0.846747V15.8828C-0.000185774 16.3579 0.392252 16.7298 0.846666 16.7298ZM1.69341 1.69366H22.3662V15.0362L9.19077 15.036C9.00492 15.036 8.81906 15.0979 8.67445 15.2012L6.86621 16.5L5.36621 17.5C5.36621 17.025 5.436 15.2012 5.36621 15L1.69327 15.036L1.69341 1.69366Z" fill="black"/>
<path d="M6.27302 7.04134H18.4587C18.9338 7.04134 19.3055 6.66963 19.3055 6.19459C19.3055 5.71955 18.9338 5.34784 18.4587 5.34784L6.27302 5.34766C5.79798 5.34766 5.42627 5.71936 5.42627 6.1944C5.42627 6.66963 5.79797 7.04134 6.27302 7.04134Z" fill="black"/>
<path d="M6.27302 11.131H18.4587C18.9338 11.131 19.3055 10.7593 19.3055 10.2842C19.3055 9.80921 18.9338 9.4375 18.4587 9.4375H6.27302C5.79798 9.4375 5.42627 9.8092 5.42627 10.2842C5.42627 10.7593 5.79797 11.131 6.27302 11.131Z" fill="black"/>
</g>
</svg>
