<svg width="16" height="15" viewBox="0 0 16 15" fill="none" xmlns="http://www.w3.org/2000/svg">
<g clip-path="url(#clip0_0_2879)">
<path d="M13.7778 6.24992H9.33336V2.08325C9.33336 1.75173 9.19288 1.43379 8.94284 1.19937C8.69279 0.964948 8.35365 0.833252 8.00003 0.833252C7.64641 0.833252 7.30727 0.964948 7.05722 1.19937C6.80717 1.43379 6.66669 1.75173 6.66669 2.08325V6.24992H2.22225C1.86863 6.24992 1.52949 6.38161 1.27944 6.61603C1.02939 6.85046 0.888916 7.1684 0.888916 7.49992C0.888916 7.83144 1.02939 8.14938 1.27944 8.3838C1.52949 8.61822 1.86863 8.74992 2.22225 8.74992H6.66669V12.9166C6.66669 13.2481 6.80717 13.566 7.05722 13.8005C7.30727 14.0349 7.64641 14.1666 8.00003 14.1666C8.35365 14.1666 8.69279 14.0349 8.94284 13.8005C9.19288 13.566 9.33336 13.2481 9.33336 12.9166V8.74992H13.7778C14.1314 8.74992 14.4706 8.61822 14.7206 8.3838C14.9707 8.14938 15.1111 7.83144 15.1111 7.49992C15.1111 7.1684 14.9707 6.85046 14.7206 6.61603C14.4706 6.38161 14.1314 6.24992 13.7778 6.24992Z" fill="white"/>
</g>
<defs>
<clipPath id="clip0_0_2879">
<rect width="16" height="15" fill="white"/>
</clipPath>
</defs>
</svg>
