<svg width="12" height="8" viewBox="0 0 12 8" fill="none" xmlns="http://www.w3.org/2000/svg">
<path d="M2.52007 1.91592H6.18674C6.30945 1.91592 6.40896 1.83684 6.40896 1.73933C6.40896 1.64182 6.30945 1.56274 6.18674 1.56274H2.52007C2.39737 1.56274 2.29785 1.64182 2.29785 1.73933C2.29785 1.83684 2.39737 1.91592 2.52007 1.91592Z" fill="black"/>
<path d="M5.07563 2.90852C5.07563 2.81101 4.97611 2.73193 4.85341 2.73193H2.52007C2.39737 2.73193 2.29785 2.81101 2.29785 2.90852C2.29785 3.00603 2.39737 3.08511 2.52007 3.08511H4.85341C4.97611 3.08511 5.07563 3.00603 5.07563 2.90852Z" fill="black"/>
<path d="M10.0489 1.86385H9.60444C9.48174 1.86385 9.38222 1.94319 9.38222 2.04102C9.38222 2.13885 9.48174 2.21819 9.60444 2.21819H10.0489C10.4485 2.21819 10.8317 2.34476 11.1142 2.57004C11.3968 2.79528 11.5556 3.10084 11.5556 3.41942V4.8864C11.5591 5.2068 11.4019 5.51508 11.119 5.7427C10.836 5.97026 10.4508 6.09826 10.0489 6.09826C9.9834 6.09821 9.92139 6.12163 9.88 6.16204C9.83625 6.2018 9.81819 6.25545 9.83111 6.30732L9.91556 6.70419L8.81333 6.13015C8.77854 6.10967 8.73653 6.09854 8.69333 6.09826H5.24889C4.41854 6.09826 3.74466 5.56259 3.74222 4.90058V4.57458H6.75111C7.82764 4.57264 8.69973 3.8773 8.70222 3.01901V1.55203C8.69979 0.694288 7.82695 0 6.75111 0H1.95111C0.875271 0 0.00248889 0.694288 0 1.55203V3.01901C0.00194453 3.79674 0.722507 4.45439 1.68889 4.56041L1.55556 5.16634C1.54 5.23577 1.57861 5.30575 1.65333 5.34351C1.72646 5.38094 1.82021 5.38094 1.89333 5.34351L3.29333 4.6171V4.8864C3.28979 5.30143 3.49438 5.70035 3.8616 5.99451C4.22889 6.28862 4.72834 6.45356 5.24889 6.45261H8.62667L10.1022 7.22153C10.1753 7.25896 10.2691 7.25896 10.3422 7.22153C10.4179 7.18444 10.4569 7.1139 10.44 7.04436L10.3111 6.44198C11.2775 6.33595 11.9981 5.67831 12 4.90058V3.41942C11.9976 2.56113 11.1254 1.86583 10.0489 1.86385ZM2.08444 4.82262L2.16889 4.4293C2.1825 4.37742 2.16438 4.3235 2.12 4.28402C2.07861 4.2436 2.0166 4.22018 1.95111 4.22024C1.11902 4.22024 0.444444 3.68241 0.444444 3.01901V1.55203C0.446875 0.890013 1.12076 0.354344 1.95111 0.354344H6.75111C7.58146 0.354344 8.25534 0.890013 8.25778 1.55203V3.01901C8.25778 3.68241 7.5832 4.22024 6.75111 4.22024H3.30667C3.2641 4.22035 3.22243 4.23015 3.18667 4.24859L2.08444 4.82262Z" fill="black"/>
<path d="M9.18658 3.77969H9.47991C9.60262 3.77969 9.70213 3.70061 9.70213 3.6031C9.70213 3.50559 9.60262 3.42651 9.47991 3.42651H9.18658C9.06387 3.42651 8.96436 3.50559 8.96436 3.6031C8.96436 3.70061 9.06387 3.77969 9.18658 3.77969Z" fill="black"/>
<path d="M9.48009 4.57812H8.25787C8.13613 4.58 8.03801 4.65797 8.03564 4.75471C8.03564 4.85222 8.13516 4.9313 8.25787 4.9313H9.48009C9.6028 4.9313 9.70231 4.85222 9.70231 4.75471C9.70231 4.6572 9.6028 4.57812 9.48009 4.57812Z" fill="black"/>
</svg>
