<svg width="36" height="36" viewBox="0 0 36 36" fill="none" xmlns="http://www.w3.org/2000/svg">
<g filter="url(#filter0_d_0_2122)">
<path d="M22.426 3.71839H13.5739C9.72879 3.71839 7.43654 6.01065 7.43654 9.85572V18.6973C7.43654 22.5529 9.72879 24.8452 13.5739 24.8452H22.4154C26.2605 24.8452 28.5527 22.5529 28.5527 18.7078V9.85572C28.5633 6.01065 26.271 3.71839 22.426 3.71839ZM23.0492 11.8522L17.0598 17.8416C16.9119 17.9895 16.7112 18.074 16.4999 18.074C16.2886 18.074 16.0879 17.9895 15.9401 17.8416L12.9506 14.8522C12.6443 14.5459 12.6443 14.0388 12.9506 13.7325C13.257 13.4261 13.764 13.4261 14.0703 13.7325L16.4999 16.1621L21.9295 10.7325C22.2358 10.4261 22.7429 10.4261 23.0492 10.7325C23.3556 11.0388 23.3556 11.5353 23.0492 11.8522Z" fill="#2F0DFF"/>
</g>
<defs>
<filter id="filter0_d_0_2122" x="-8.26876e-05" y="8.24458e-05" width="35.9895" height="35.9999" filterUnits="userSpaceOnUse" color-interpolation-filters="sRGB">
<feFlood flood-opacity="0" result="BackgroundImageFix"/>
<feColorMatrix in="SourceAlpha" type="matrix" values="0 0 0 0 0 0 0 0 0 0 0 0 0 0 0 0 0 0 127 0" result="hardAlpha"/>
<feOffset dy="3.66667"/>
<feGaussianBlur stdDeviation="3.66667"/>
<feComposite in2="hardAlpha" operator="out"/>
<feColorMatrix type="matrix" values="0 0 0 0 0.592157 0 0 0 0 0.278431 0 0 0 0 1 0 0 0 0.08 0"/>
<feBlend mode="normal" in2="BackgroundImageFix" result="effect1_dropShadow_0_2122"/>
<feBlend mode="normal" in="SourceGraphic" in2="effect1_dropShadow_0_2122" result="shape"/>
</filter>
</defs>
</svg>
