<svg width="24" height="15" viewBox="0 0 24 15" fill="none" xmlns="http://www.w3.org/2000/svg">
<path d="M22.5172 1.32155C22.391 0.984443 21.6846 0.861832 21.2809 1.10703L20.0195 1.87318C15.3016 -0.701128 8.06077 -0.624485 3.51949 2.11826C-1.17316 4.96832 -1.17316 9.59585 3.51949 12.4459C3.67084 12.5378 3.82219 12.6145 3.94837 12.7064C4.20073 12.8443 4.50341 12.9056 4.80612 12.9056C5.15932 12.9056 5.51254 12.8137 5.76488 12.6451C6.24428 12.3233 6.19375 11.833 5.66404 11.5419L5.31083 11.3427C1.65245 9.10557 1.65245 5.45866 5.336 3.22151C8.86801 1.07636 14.4942 1.01498 18.203 2.97632L16.8153 3.81911C16.4116 4.0643 16.6134 4.49334 17.1685 4.56996L23.0722 5.44342C23.6021 5.52006 24.1066 5.2289 23.9804 4.8918L22.5172 1.32155Z" fill="#B79831"/>
<path d="M16.2351 7.98705L13.2833 6.85313V3.98774C13.2833 3.5587 12.703 3.2063 11.9966 3.2063C11.2902 3.2063 10.71 3.5587 10.71 3.98774V7.26685C10.71 7.52732 10.937 7.7878 11.3155 7.92568L14.8475 9.28942C15.0494 9.36605 15.3016 9.41201 15.5288 9.41201C15.9576 9.41201 16.3613 9.28942 16.6135 9.04424C17.0172 8.69195 16.8406 8.21696 16.235 7.98704L16.2351 7.98705Z" fill="#B79831"/>
<path d="M9.54943 12.8138L9.07003 12.7218C8.38879 12.584 7.65723 12.8138 7.45535 13.2122C7.22833 13.626 7.6067 14.0703 8.26278 14.1929C8.46464 14.2389 8.66649 14.2695 8.86833 14.3002C8.96917 14.3155 9.09535 14.3309 9.19637 14.3309C9.75141 14.3309 10.2811 14.1011 10.4326 13.7486C10.6343 13.35 10.2306 12.921 9.5494 12.8138L9.54943 12.8138Z" fill="#B79831"/>
<path d="M13.9138 12.8902L13.4092 12.9362C12.7028 12.9974 12.2235 13.3959 12.3245 13.8249C12.4253 14.208 12.9804 14.4991 13.5859 14.4991C13.6364 14.4991 13.7121 14.4991 13.7878 14.4838C13.9896 14.4686 14.2167 14.4379 14.4185 14.4226C15.1249 14.3307 15.5538 13.9322 15.4276 13.5032C15.2763 13.0894 14.5951 12.8137 13.9138 12.8902Z" fill="#B79831"/>
<path d="M17.8497 11.7872L17.446 11.971C16.8657 12.2162 16.7395 12.7065 17.1433 13.059C17.3956 13.2735 17.7992 13.3961 18.2029 13.3961C18.4553 13.3961 18.7074 13.3501 18.9345 13.2582C19.1111 13.1816 19.2877 13.1049 19.439 13.0284C19.994 12.7679 20.0949 12.2623 19.6409 11.9252C19.2371 11.5727 18.4046 11.5266 17.8497 11.7872Z" fill="#B79831"/>
</svg>
