<svg width="24" height="24" viewBox="0 0 24 24" fill="none" xmlns="http://www.w3.org/2000/svg">
<g opacity="0.6">
<path d="M4.74425 7.57734C4.79289 7.46337 4.86402 7.35565 4.96134 7.25561L4.99773 7.22095L11.2542 1.26209L11.2542 1.26204C11.464 1.06221 11.732 0.962891 11.9997 0.962891C12.2669 0.962891 12.5353 1.06239 12.7461 1.2624C12.7462 1.26249 12.7463 1.26257 12.7464 1.26265L19.002 7.22073C19.1162 7.32961 19.1977 7.44679 19.2518 7.57032L19.2578 7.58569L19.2578 7.58571L19.2604 7.59207C19.3117 7.71788 19.339 7.85508 19.339 8.00453V18.2379H14.3725V14.0937C14.3725 13.7308 14.2237 13.4017 13.9876 13.1647L13.987 13.1641C13.7501 12.9273 13.4207 12.7786 13.0579 12.7786H10.9405C10.5781 12.7786 10.2481 12.9256 10.011 13.1634L10.0094 13.165C9.77498 13.4022 9.62596 13.7302 9.62596 14.0935V18.2378H4.65942V8.00439C4.65942 7.84855 4.68887 7.70672 4.74404 7.57782L4.74425 7.57734Z" stroke="black"/>
</g>
</svg>
