<svg width="20" height="20" viewBox="0 0 20 20" fill="none" xmlns="http://www.w3.org/2000/svg">
<path d="M9.99971 0C4.48569 0 0 4.48592 0 9.99971C0 12.8671 1.21477 15.4547 3.15476 17.2798C3.16348 17.2892 3.16937 17.3006 3.17875 17.3093C3.56622 17.6712 3.97966 17.997 4.41227 18.2894L4.4138 18.2905C4.54506 18.3793 4.67829 18.4647 4.81326 18.5467C4.81828 18.5498 4.82307 18.5526 4.82809 18.5557C4.95804 18.6346 5.08975 18.7103 5.22297 18.7829C5.2354 18.7896 5.24783 18.7962 5.26026 18.8029C5.38586 18.8707 5.51254 18.9357 5.64076 18.9981C5.66256 19.0088 5.68459 19.019 5.70661 19.0297C5.82566 19.0864 5.94581 19.1409 6.06704 19.1928C6.09888 19.2065 6.13093 19.2198 6.16276 19.2332C6.27506 19.2798 6.38801 19.3245 6.50183 19.367C6.54326 19.3825 6.58491 19.3978 6.62655 19.4128C6.73165 19.4505 6.83719 19.4861 6.94338 19.5203C6.99462 19.5369 7.04586 19.5532 7.09754 19.5689C7.19566 19.5986 7.29422 19.6265 7.39344 19.6531C7.45296 19.6692 7.51227 19.6854 7.57224 19.7004C7.66556 19.7238 7.75954 19.7449 7.85374 19.7656C7.91916 19.78 7.98435 19.7946 8.04998 19.8077C8.14156 19.8258 8.23358 19.8415 8.32581 19.8572C8.39428 19.8688 8.46231 19.8812 8.53122 19.8912C8.62476 19.905 8.71874 19.9159 8.81294 19.9272C8.88075 19.9353 8.94835 19.9444 9.01659 19.9512C9.12017 19.9614 9.2244 19.968 9.32862 19.975C9.38771 19.9789 9.44637 19.9846 9.5059 19.9874C9.66943 19.9955 9.83341 19.9998 9.99803 19.9998H10C10.1653 19.9998 10.3301 19.9952 10.4943 19.9874C10.5525 19.9846 10.6101 19.9789 10.6681 19.9752C10.7736 19.9682 10.8792 19.9614 10.9841 19.951C11.0512 19.9444 11.1175 19.9353 11.1842 19.9274C11.2795 19.9161 11.3748 19.905 11.4697 19.891C11.5375 19.881 11.6046 19.8688 11.672 19.8574C11.7653 19.8417 11.8584 19.8258 11.9511 19.8075C12.0159 19.7946 12.0802 19.78 12.1445 19.7661C12.2396 19.7451 12.3347 19.7238 12.4291 19.7002C12.4882 19.6854 12.5466 19.6695 12.6053 19.6535C12.7053 19.6265 12.805 19.5986 12.904 19.5685C12.9548 19.553 13.0052 19.5369 13.0557 19.5208C13.1628 19.4863 13.2692 19.4505 13.375 19.4126C13.416 19.3978 13.4567 19.3827 13.4975 19.3675C13.6122 19.3247 13.726 19.2796 13.839 19.2327C13.8702 19.2199 13.9011 19.2068 13.9321 19.1935C14.0542 19.1411 14.1752 19.0862 14.2951 19.0291C14.3163 19.019 14.3374 19.009 14.3584 18.9987C14.4872 18.9362 14.6146 18.8708 14.7408 18.8025C14.7526 18.7962 14.7646 18.7899 14.7764 18.7833C14.9103 18.7103 15.0424 18.6342 15.173 18.555C15.1774 18.5524 15.1815 18.55 15.1859 18.5474C15.7663 18.1942 16.3151 17.7818 16.821 17.3095C16.8304 17.3006 16.8363 17.2895 16.8452 17.2801C18.785 15.455 20 12.8674 20 10.0005C20 4.48604 15.5135 0 9.99971 0ZM6.75274 8.30053C6.75274 6.51014 8.20932 5.05333 9.99949 5.05333C11.7899 5.05333 13.2465 6.51014 13.2465 8.30053C13.2465 10.0909 11.7899 11.5473 9.99949 11.5473C8.20954 11.5473 6.75274 10.0909 6.75274 8.30053ZM9.99994 12.8582C12.6534 12.8582 14.9342 14.3974 15.6825 16.6448C15.6609 16.6631 15.64 16.6821 15.6184 16.7004C15.4651 16.8291 15.3079 16.9518 15.1472 17.0692C15.0933 17.1084 15.039 17.147 14.9843 17.1849C14.8207 17.2988 14.6544 17.4073 14.4843 17.5094C14.4309 17.5414 14.3766 17.5718 14.3225 17.6025C14.1437 17.7045 13.9627 17.8022 13.7778 17.891C13.7368 17.9106 13.6945 17.9283 13.6533 17.9475C13.4702 18.0318 13.2846 18.1106 13.0962 18.1821C13.0676 18.193 13.0399 18.2052 13.0112 18.2157C12.8018 18.2924 12.5888 18.3594 12.3738 18.42C12.335 18.4309 12.2964 18.4426 12.2571 18.4531C12.0437 18.51 11.8278 18.5582 11.6097 18.599C11.5687 18.6066 11.5277 18.614 11.4865 18.621C11.265 18.6592 11.0419 18.6897 10.8167 18.7106C10.7829 18.7137 10.7487 18.7156 10.7146 18.7185C10.4776 18.7377 10.2395 18.7501 9.99964 18.7501C9.75957 18.7501 9.5208 18.7377 9.28358 18.7185C9.25 18.7159 9.21598 18.7139 9.1824 18.7109C8.95694 18.6899 8.73344 18.6592 8.51144 18.6212C8.47066 18.6143 8.43011 18.6071 8.38955 18.5994C8.17128 18.5587 7.95475 18.5105 7.74108 18.4533C7.70248 18.4431 7.66454 18.4315 7.62617 18.4206C7.41073 18.36 7.19726 18.2931 6.9873 18.2159C6.95917 18.2056 6.93191 18.1936 6.904 18.1829C6.71474 18.1112 6.52852 18.0321 6.34451 17.9475C6.30374 17.9287 6.26209 17.9113 6.22154 17.8918C6.03598 17.8029 5.85478 17.705 5.67554 17.6027C5.6219 17.572 5.56783 17.5419 5.51484 17.5103C5.34432 17.4082 5.17773 17.2992 5.01376 17.1852C4.95947 17.1474 4.90561 17.1091 4.85219 17.07C4.69127 16.9525 4.53362 16.8295 4.38011 16.7006C4.35853 16.6826 4.33781 16.6638 4.31644 16.6455C5.06522 14.3974 7.34639 12.8582 9.99994 12.8582ZM16.6459 15.6815C15.8821 13.9659 14.3776 12.6534 12.5202 12.0228C13.7123 11.2132 14.4971 9.84693 14.4971 8.30048C14.4971 5.82036 12.4794 3.803 9.99982 3.803C7.51994 3.803 5.50258 5.82064 5.50258 8.30048C5.50258 9.84688 6.28736 11.2132 7.47941 12.0228C5.62209 12.6534 4.1175 13.9659 3.35393 15.6815C2.0441 14.1514 1.25038 12.1674 1.25038 10C1.25038 5.17547 5.17524 1.25016 9.99971 1.25016C14.8243 1.25016 18.7496 5.17524 18.7496 10C18.7496 12.1672 17.9556 14.1513 16.6459 15.6815Z" fill="black"/>
</svg>
